<svg width="34" height="49" viewBox="0 0 34 49" fill="none" xmlns="http://www.w3.org/2000/svg">
<path d="M16.7329 0.876587C7.50619 0.876587 0 8.50075 0 17.8717V31.4054C0 40.7763 7.50619 48.4 16.7329 48.4C25.959 48.4 33.4658 40.7994 33.4658 31.4573V17.8717C33.4658 8.50075 25.959 0.876587 16.7329 0.876587ZM30.3184 31.4573C30.3184 39.0643 24.2243 45.2528 16.7329 45.2528C9.24191 45.2528 3.14731 39.0407 3.14731 31.4049V17.8717C3.14731 10.2359 9.24191 4.02381 16.7329 4.02381C24.2244 4.02381 30.3184 10.2359 30.3184 17.8717V31.4573Z" fill="#C08D5D"/>
<path d="M16.7323 13.8853C15.8632 13.8853 15.1587 14.5898 15.1587 15.459V20.9667C15.1587 21.8358 15.8632 22.5403 16.7323 22.5403C17.6015 22.5403 18.306 21.8358 18.306 20.9667V15.459C18.306 14.5898 17.6015 13.8853 16.7323 13.8853Z" fill="#C08D5D"/>
</svg>
